<svg xmlns="http://www.w3.org/2000/svg" viewBox="0 0 1239 1239">
  <defs>
    <style>
      .st0 {
        fill: #ff931e;
      }
    </style>
  </defs>
  <path d="M823.88,1037.47c-39.54,0-74-10.17-103.37-30.5-29.38-20.33-52.11-47.58-68.21-81.76-16.1-34.17-24.15-71.88-24.15-113.11s9.17-80.77,27.54-115.23c18.35-34.45,44.76-61.71,79.22-81.76,34.45-20.05,75.69-30.08,123.7-30.08s89.52,10.17,122.86,30.5c33.32,20.34,58.74,47.74,76.25,82.19,17.5,34.46,26.27,72.59,26.27,114.38v215.21h-116.08v-72.02h-1.69c-8.47,15.25-19.06,29.1-31.77,41.52-12.71,12.44-28.11,22.32-46.18,29.66-18.08,7.34-39.54,11.02-64.39,11.02ZM856.93,938.34c22.59,0,42.07-5.64,58.46-16.94,16.38-11.3,28.94-26.69,37.7-46.18,8.75-19.49,13.13-41.09,13.13-64.82s-4.38-45.04-13.13-63.97c-8.76-18.92-21.33-34.03-37.7-45.33-16.39-11.29-35.88-16.95-58.46-16.95s-43.08,5.65-59.73,16.95c-16.67,11.31-29.38,26.41-38.13,45.33-8.76,18.93-13.13,40.24-13.13,63.97s4.37,45.33,13.13,64.82c8.75,19.49,21.46,34.88,38.13,46.18,16.65,11.3,36.56,16.94,59.73,16.94Z"/>
  <g>
    <rect x="155" y="201.53" width="380.24" height="380.24"/>
    <rect class="st0" x="331.54" y="378.07" width="203.7" height="203.7"/>
  </g>
</svg>
